HIERARCHY
ROOT Hip
{
  OFFSET 0.000000 0.000000 0.000000
  CHANNELS 6 Xposition Yposition Zposition Zrotation Xrotation Yrotation
  JOINT RHip
  {
    OFFSET 0.000000 0.000000 0.000000
    CHANNELS 3 Xposition Yposition Zposition
    End Site
    {
      OFFSET 0.000000 0.100000 0.000000
    }
  }
  JOINT RKnee
  {
    OFFSET 0.000000 0.000000 0.000000
    CHANNELS 3 Xposition Yposition Zposition
    End Site
    {
      OFFSET 0.000000 0.100000 0.000000
    }
  }
  JOINT RFoot
  {
    OFFSET 0.000000 0.000000 0.000000
    CHANNELS 3 Xposition Yposition Zposition
    End Site
    {
      OFFSET 0.000000 0.100000 0.000000
    }
  }
  JOINT LHip
  {
    OFFSET 0.000000 0.000000 0.000000
    CHANNELS 3 Xposition Yposition Zposition
    End Site
    {
      OFFSET 0.000000 0.100000 0.000000
    }
  }
  JOINT LKnee
  {
    OFFSET 0.000000 0.000000 0.000000
    CHANNELS 3 Xposition Yposition Zposition
    End Site
    {
      OFFSET 0.000000 0.100000 0.000000
    }
  }
  JOINT LFoot
  {
    OFFSET 0.000000 0.000000 0.000000
    CHANNELS 3 Xposition Yposition Zposition
    End Site
    {
      OFFSET 0.000000 0.100000 0.000000
    }
  }
  JOINT Spine
  {
    OFFSET 0.000000 0.000000 0.000000
    CHANNELS 3 Xposition Yposition Zposition
    End Site
    {
      OFFSET 0.000000 0.100000 0.000000
    }
  }
  JOINT Thorax
  {
    OFFSET 0.000000 0.000000 0.000000
    CHANNELS 3 Xposition Yposition Zposition
    End Site
    {
      OFFSET 0.000000 0.100000 0.000000
    }
  }
  JOINT Nose
  {
    OFFSET 0.000000 0.000000 0.000000
    CHANNELS 3 Xposition Yposition Zposition
    End Site
    {
      OFFSET 0.000000 0.100000 0.000000
    }
  }
  JOINT Head
  {
    OFFSET 0.000000 0.000000 0.000000
    CHANNELS 3 Xposition Yposition Zposition
    End Site
    {
      OFFSET 0.000000 0.100000 0.000000
    }
  }
  JOINT LShoulder
  {
    OFFSET 0.000000 0.000000 0.000000
    CHANNELS 3 Xposition Yposition Zposition
    End Site
    {
      OFFSET 0.000000 0.100000 0.000000
    }
  }
  JOINT LElbow
  {
    OFFSET 0.000000 0.000000 0.000000
    CHANNELS 3 Xposition Yposition Zposition
    End Site
    {
      OFFSET 0.000000 0.100000 0.000000
    }
  }
  JOINT LWrist
  {
    OFFSET 0.000000 0.000000 0.000000
    CHANNELS 3 Xposition Yposition Zposition
    End Site
    {
      OFFSET 0.000000 0.100000 0.000000
    }
  }
  JOINT RShoulder
  {
    OFFSET 0.000000 0.000000 0.000000
    CHANNELS 3 Xposition Yposition Zposition
    End Site
    {
      OFFSET 0.000000 0.100000 0.000000
    }
  }
  JOINT RElbow
  {
    OFFSET 0.000000 0.000000 0.000000
    CHANNELS 3 Xposition Yposition Zposition
    End Site
    {
      OFFSET 0.000000 0.100000 0.000000
    }
  }
  JOINT RWrist
  {
    OFFSET 0.000000 0.000000 0.000000
    CHANNELS 3 Xposition Yposition Zposition
    End Site
    {
      OFFSET 0.000000 0.100000 0.000000
    }
  }
}
MOTION
Frames: 15
Frame Time: 0.033333
0.000003 1.005072 0.000244 0.000000 0.000000 0.000000 0.090292 0.041494 -0.011447 0.033491 -0.037918 0.244112 -0.364777 0.114327 0.223522 -0.090340 -0.041587 0.011014 0.226441 -0.083382 0.227687 0.115515 -0.088063 0.314898 0.038963 -0.061021 -0.211741 0.125281 -0.090476 -0.216128 0.188500 -0.293701 -0.312083 -0.465933 0.130923 -0.283785 0.112580 -0.080387 -0.217988 0.489101 0.023677 -0.348772 0.422137 -0.408995 -0.350700 0.213044 -0.155849 -0.253210 0.085096 0.314141 -0.220501 -0.238114 -0.392854 -0.136570
0.000003 1.005077 0.000195 0.000000 0.000000 0.000000 0.041817 0.036355 -0.010769 -0.030233 -0.124844 0.237853 -0.463055 0.233923 0.142696 -0.041868 -0.036465 0.010434 0.316163 0.002432 0.187143 -0.070870 0.022071 0.303179 0.064936 -0.067545 -0.222052 0.118040 -0.083834 -0.235180 0.268441 -0.255813 -0.316320 -0.474140 0.151180 -0.257886 0.182648 -0.079213 -0.246670 0.409680 0.115345 -0.439225 0.061587 -0.436724 -0.437337 0.152514 -0.128606 -0.282095 0.252998 0.397509 -0.247404 -0.509377 -0.461694 -0.166110
0.000004 1.005081 0.000132 0.000000 0.000000 0.000000 -0.016273 0.020454 0.000784 -0.078221 -0.168714 0.204425 -0.473282 0.297305 0.059919 0.016212 -0.020581 -0.000993 0.375949 0.181210 0.112884 -0.312278 0.069897 0.278864 0.056838 -0.067558 -0.217675 0.084390 -0.053891 -0.228804 0.308875 -0.160147 -0.336334 -0.396968 0.174812 -0.256910 0.250761 -0.060650 -0.260140 0.388839 0.131154 -0.525743 -0.250446 -0.454829 -0.549663 0.030412 -0.092817 -0.288023 0.375796 0.431300 -0.283035 -0.638330 -0.526556 -0.206019
0.000004 1.005082 0.000081 0.000000 0.000000 0.000000 -0.081006 0.000221 0.012314 -0.090601 -0.141807 0.148352 -0.437920 0.302253 0.016759 0.080935 -0.000354 -0.012414 0.430392 0.345488 0.036490 -0.508515 0.072124 0.244119 0.016746 -0.052051 -0.194867 0.026008 -0.004486 -0.188998 0.305628 -0.048928 -0.338850 -0.288699 0.190107 -0.235334 0.270402 0.002489 -0.235565 0.325173 0.098353 -0.548873 -0.411105 -0.455465 -0.629641 -0.113476 -0.073950 -0.254501 0.411169 0.383900 -0.323007 -0.605582 -0.560073 -0.265926
0.000004 1.005078 0.000069 0.000000 0.000000 0.000000 -0.149271 -0.008993 0.005138 -0.028564 -0.053113 0.066765 -0.367211 0.246523 0.018436 0.149192 0.008867 -0.005204 0.498239 0.403154 -0.040190 -0.565702 0.075131 0.187387 -0.022169 -0.030888 -0.166809 0.003440 0.047944 -0.132991 0.291383 0.023263 -0.318851 -0.162789 0.175878 -0.176154 0.285751 0.087315 -0.179053 0.222287 0.038941 -0.508033 -0.348586 -0.462619 -0.653747 -0.201362 -0.091171 -0.201110 0.346144 0.253597 -0.376295 -0.418417 -0.544958 -0.372849
0.000004 1.005073 0.000111 0.000000 0.000000 0.000000 -0.193210 -0.003043 -0.021581 0.097269 0.034202 -0.014119 -0.292077 0.111432 0.031661 0.193122 0.002933 0.021442 0.568969 0.336025 -0.102480 -0.473675 0.107898 0.122947 -0.022909 -0.000974 -0.142362 0.065026 0.103620 -0.079087 0.320348 0.047973 -0.290421 -0.022121 0.145253 -0.103139 0.331716 0.176088 -0.110811 0.120325 -0.001030 -0.431626 -0.107453 -0.513318 -0.629659 -0.161443 -0.109074 -0.156663 0.198561 0.088284 -0.408707 -0.112529 -0.459068 -0.474241
0.000005 1.005071 0.000202 0.000000 0.000000 0.000000 -0.178980 0.007946 -0.053628 0.216732 0.075272 -0.032398 -0.270468 -0.076606 0.037675 0.178884 -0.008042 0.053312 0.621787 0.182074 -0.115264 -0.276202 0.157288 0.087783 0.020293 0.044554 -0.129655 0.191631 0.160090 -0.048328 0.410136 0.026214 -0.257441 0.088356 0.131629 -0.046209 0.367870 0.249614 -0.065366 0.052017 0.017179 -0.352624 0.144087 -0.626994 -0.566959 0.022780 -0.087956 -0.141401 0.046961 -0.035857 -0.387596 0.165260 -0.335141 -0.501160
0.000004 1.005073 0.000300 0.000000 0.000000 0.000000 -0.103993 0.019274 -0.083968 0.292878 0.065831 0.032274 -0.357867 -0.230709 0.084600 0.103895 -0.019367 0.083454 0.647633 0.011329 -0.056678 -0.054898 0.179805 0.092887 0.097917 0.091714 -0.129133 0.327661 0.208185 -0.054041 0.516788 -0.021645 -0.218889 0.125980 0.158356 -0.055783 0.353342 0.268542 -0.060402 0.021602 0.068976 -0.271491 0.252708 -0.766226 -0.450958 0.294977 -0.012617 -0.155854 -0.013118 -0.039700 -0.320503 0.285500 -0.211695 -0.433229
0.000004 1.005078 0.000355 0.000000 0.000000 0.000000 0.005966 0.029766 -0.100418 0.334383 -0.010630 0.126797 -0.495977 -0.307923 0.203735 -0.006057 -0.029869 0.099790 0.598836 -0.145522 0.054066 0.021994 0.132071 0.104852 0.191914 0.115973 -0.142336 0.420477 0.235254 -0.088168 0.576666 -0.052846 -0.184913 0.107065 0.201595 -0.136442 0.299291 0.207962 -0.090820 -0.039348 0.092247 -0.205913 0.199578 -0.877395 -0.310684 0.547195 0.104436 -0.176612 0.050406 0.076232 -0.247965 0.283682 -0.128632 -0.301152
0.000004 1.005083 0.000369 0.000000 0.000000 0.000000 0.124832 0.037339 -0.089905 0.345734 -0.148898 0.244218 -0.580102 -0.325247 0.301251 -0.124910 -0.037458 0.089251 0.486034 -0.279563 0.195294 -0.066669 0.032936 0.124069 0.256618 0.097292 -0.171277 0.447739 0.219254 -0.125724 0.567491 -0.051252 -0.170155 0.090317 0.218355 -0.241470 0.233130 0.079255 -0.132896 -0.164589 0.047090 -0.195666 0.108925 -0.942590 -0.188028 0.685619 0.199824 -0.192590 0.221759 0.203391 -0.217862 0.255206 -0.098727 -0.190936
0.000003 1.005086 0.000347 0.000000 0.000000 0.000000 0.217341 0.045476 -0.064522 0.312520 -0.270010 0.369485 -0.583098 -0.314037 0.335995 -0.217409 -0.045605 0.063916 0.359168 -0.374402 0.328391 -0.194276 -0.066711 0.160166 0.250556 0.049321 -0.205304 0.409510 0.169113 -0.152387 0.495483 -0.024552 -0.188503 0.074979 0.209035 -0.351651 0.173796 -0.053530 -0.163928 -0.341083 -0.070575 -0.240155 0.101079 -0.971999 -0.125821 0.668566 0.228829 -0.208549 0.458817 0.225120 -0.238556 0.209518 -0.095202 -0.165074
0.000003 1.005085 0.000293 0.000000 0.000000 0.000000 0.241935 0.045627 -0.034099 0.208721 -0.311810 0.450384 -0.568337 -0.287864 0.340357 -0.241992 -0.045759 0.033604 0.204959 -0.397874 0.380232 -0.278111 -0.137271 0.204361 0.173702 -0.001976 -0.234373 0.295849 0.116002 -0.183235 0.385754 0.021867 -0.249534 0.042676 0.193301 -0.484094 0.113502 -0.127713 -0.202677 -0.525034 -0.241768 -0.320500 0.175414 -0.983307 -0.149908 0.494361 0.202563 -0.231657 0.680770 0.096886 -0.297252 0.145451 -0.113676 -0.221566
0.000003 1.005081 0.000235 0.000000 0.000000 0.000000 0.196844 0.033527 -0.003080 0.046597 -0.258276 0.439548 -0.586788 -0.225994 0.316228 -0.196889 -0.033655 0.002703 0.005765 -0.323937 0.320656 -0.327528 -0.133096 0.239114 0.062225 -0.033397 -0.249139 0.112989 0.097717 -0.216520 0.252737 0.092092 -0.319574 -0.033213 0.205389 -0.599278 0.030213 -0.117645 -0.247702 -0.634939 -0.416023 -0.399706 0.263779 -0.968689 -0.231307 0.217810 0.166249 -0.257585 0.778827 -0.103326 -0.363472 0.091879 -0.131965 -0.316501
0.000003 1.005077 0.000199 0.000000 0.000000 0.000000 0.131315 0.022501 0.011190 -0.099604 -0.162123 0.371132 -0.644911 -0.121285 0.268984 -0.131350 -0.022622 -0.011492 -0.155192 -0.179930 0.233110 -0.364810 -0.036752 0.253475 -0.034440 -0.025669 -0.239956 -0.070236 0.129035 -0.225497 0.133290 0.145807 -0.348828 -0.155454 0.248222 -0.618600 -0.061292 -0.039548 -0.260932 -0.592505 -0.538263 -0.431852 0.309703 -0.912132 -0.311733 -0.041282 0.156511 -0.275654 0.711432 -0.222927 -0.403426 0.065499 -0.117796 -0.397548
0.000003 1.005076 0.000189 0.000000 0.000000 0.000000 0.087838 0.015580 0.007387 -0.179779 -0.105637 0.308365 -0.745598 -0.017675 0.217756 -0.087868 -0.015703 -0.007669 -0.203679 -0.020499 0.175901 -0.405673 0.092448 0.234564 -0.088981 0.021981 -0.207998 -0.173223 0.193458 -0.200839 0.066497 0.137521 -0.328031 -0.262328 0.295477 -0.520979 -0.124494 0.070158 -0.229746 -0.414834 -0.641691 -0.398987 0.286532 -0.842504 -0.360771 -0.177629 0.177994 -0.271390 0.504667 -0.179969 -0.393480 0.033204 -0.065877 -0.410989
